<?xml version="1.0" standalone="no"?>
<!DOCTYPE svg PUBLIC "-//W3C//DTD SVG 20010904//EN"
 "http://www.w3.org/TR/2001/REC-SVG-20010904/DTD/svg10.dtd">
<svg version="1.0" xmlns="http://www.w3.org/2000/svg"
 width="280.000000pt" height="280.000000pt" viewBox="0 0 280.000000 280.000000"
 preserveAspectRatio="xMidYMid meet">
<metadata>
Created by potrace 1.13, written by Peter Selinger 2001-2015
</metadata>
<g transform="translate(0.000000,280.000000) scale(0.100000,-0.100000)"
fill="#000000" stroke="none">
<path d="M2047 2502 c-9 -10 -24 -36 -33 -57 l-17 -40 -11 39 c-6 22 -16 41
-22 43 -6 2 -19 -18 -29 -44 -22 -59 -70 -146 -90 -163 -13 -11 -14 -8 -8 21
6 32 5 33 -13 20 -10 -8 -40 -35 -65 -59 l-46 -44 -69 22 c-93 30 -316 39
-420 17 -169 -36 -312 -115 -439 -242 -175 -175 -255 -367 -255 -615 0 -172
35 -301 118 -443 27 -48 32 -61 21 -68 -8 -4 -32 -21 -54 -38 -22 -17 -78 -58
-124 -91 -89 -63 -90 -86 -2 -25 98 67 74 30 -28 -42 -36 -27 -102 -67 -146
-90 -77 -41 -79 -47 -15 -44 24 1 23 0 -13 -32 -45 -41 -47 -51 -8 -44 18 4
31 2 33 -5 3 -7 14 -5 35 6 46 23 47 20 5 -19 -28 -26 -33 -35 -19 -35 10 0
32 7 50 17 31 15 31 15 17 -2 -14 -17 -14 -17 18 -1 31 16 33 16 30 0 -2 -14
5 -18 29 -20 23 -1 43 7 70 31 33 27 42 31 68 23 23 -6 32 -4 40 9 6 9 21 29
35 45 23 26 28 28 57 18 25 -9 37 -8 62 4 16 9 33 20 36 26 3 5 15 10 25 10
10 0 32 11 48 25 37 31 39 31 101 -1 214 -107 473 -118 697 -28 119 47 204
104 299 199 173 173 258 376 258 615 0 163 -38 301 -123 447 -32 56 -36 69
-30 104 4 22 17 50 29 63 13 14 21 35 21 58 0 23 6 38 15 42 25 9 19 53 -10
60 -31 8 -24 31 16 52 25 12 28 19 23 42 -4 15 -11 32 -16 38 -5 7 -2 16 7 24
18 15 20 34 3 23 -7 -4 -5 5 5 21 24 36 14 45 -24 24 -28 -16 -29 -16 -21 0
12 23 14 102 3 102 -4 0 -20 -17 -34 -37 -33 -47 -77 -100 -77 -92 0 3 7 20
16 37 10 21 13 43 8 67 -8 43 -17 50 -37 27z m-514 -416 c37 -7 70 -16 74 -19
14 -15 -69 -155 -135 -227 -37 -41 -87 -103 -110 -136 -42 -62 -94 -114 -115
-114 -7 0 -49 5 -94 11 -79 12 -84 11 -135 -14 -29 -14 -64 -29 -78 -33 -98
-27 -162 -64 -111 -64 11 0 22 -4 25 -9 3 -4 32 -11 65 -15 39 -4 71 -15 93
-31 18 -14 43 -30 56 -36 12 -7 22 -18 22 -25 0 -28 -104 -165 -193 -252 l-93
-93 -37 79 c-91 194 -88 404 9 602 39 79 62 110 133 181 71 71 102 94 181 133
144 71 291 92 443 62z m508 -409 c25 -55 59 -188 59 -233 0 -11 -26 -14 -136
-14 -132 0 -137 1 -159 24 l-23 25 22 20 c12 12 31 21 42 21 26 0 44 18 44 44
0 11 12 33 27 48 17 18 28 41 29 61 2 29 33 67 56 67 5 0 22 -29 39 -63z
m-376 -466 c11 -10 40 -28 65 -40 25 -11 65 -32 89 -46 45 -26 124 -34 136
-15 9 15 75 13 75 -2 0 -32 -70 -130 -145 -204 -66 -66 -100 -90 -176 -128
-171 -84 -364 -99 -526 -40 -38 14 -42 18 -32 35 5 11 31 33 57 49 48 29 148
129 179 178 23 35 33 42 65 42 15 0 32 6 38 13 46 54 70 93 70 113 0 13 5 35
12 49 10 23 16 26 42 21 17 -4 39 -15 51 -25z"/>
</g>
</svg>
